<?xml version="1.0" standalone="no"?>
<!DOCTYPE svg PUBLIC "-//W3C//DTD SVG 20010904//EN"
 "http://www.w3.org/TR/2001/REC-SVG-20010904/DTD/svg10.dtd">
<svg version="1.0" xmlns="http://www.w3.org/2000/svg"
 width="433.000000pt" height="433.000000pt" viewBox="0 0 433.000000 433.000000"
 preserveAspectRatio="xMidYMid meet">
<metadata>
Created by potrace 1.11, written by Peter Selinger 2001-2013
</metadata>
<g transform="translate(0.000000,433.000000) scale(0.100000,-0.100000)"
fill="#000000" stroke="none">
<path d="M2626 3165 l-26 -24 0 -501 0 -501 26 -24 27 -25 638 0 639 0 0 -434
c0 -239 3 -442 6 -451 8 -20 56 -45 87 -45 13 0 36 11 51 25 l26 24 0 496 0
496 -26 24 -27 25 -638 0 -639 0 0 439 c0 242 -3 447 -6 456 -8 20 -56 45 -87
45 -13 0 -36 -11 -51 -25z"/>
<path d="M3975 3178 c-45 -24 -45 -26 -45 -374 0 -320 1 -332 21 -358 16 -21
29 -26 64 -26 35 0 48 5 64 26 20 26 21 38 21 361 l0 334 -26 24 c-29 27 -66
31 -99 13z"/>
<path d="M35 3155 c-14 -13 -25 -33 -25 -44 0 -24 517 -1887 531 -1912 12 -22
41 -39 68 -39 59 0 61 4 290 496 122 261 221 485 221 499 0 54 -69 89 -124 62
-29 -13 -47 -48 -196 -371 -119 -258 -167 -352 -172 -339 -4 10 -107 380 -229
823 -241 879 -231 850 -305 850 -24 0 -43 -8 -59 -25z"/>
<path d="M2209 3156 c-20 -20 -65 -175 -249 -840 -124 -449 -227 -816 -230
-816 -3 0 -109 230 -235 512 -126 281 -238 519 -249 530 -38 35 -116 17 -136
-32 -11 -26 10 -76 275 -667 177 -392 297 -647 312 -661 32 -30 86 -30 117 1
14 14 33 60 51 127 16 58 133 485 260 950 246 895 244 884 195 910 -34 18 -86
12 -111 -14z"/>
<path d="M2621 1904 c-20 -26 -21 -38 -21 -361 l0 -334 26 -24 c15 -14 38 -25
51 -25 31 0 79 25 87 45 3 9 6 164 6 344 0 317 -1 329 -21 355 -16 21 -29 26
-64 26 -35 0 -48 -5 -64 -26z"/>
</g>
</svg>
